<svg id="Component_3_1" data-name="Component 3 – 1" xmlns="http://www.w3.org/2000/svg" width="134.201" height="38.388" viewBox="0 0 134.201 38.388">
  <path id="Path_743" data-name="Path 743" d="M59.044,25.56q.629-.523,1.266-1.033.331-.264.665-.523c-.055.043-.319.242-.023.018l.377-.284c.691-.515,1.395-1.014,2.121-1.48a20.105,20.105,0,0,1,1.79-1.037q.214-.107.43-.208c.055-.025.111-.049.166-.075.272-.131-.242.1-.239.1.254-.071.5-.194.753-.271.2-.06.4-.1.609-.149.393-.094-.505.038-.226.026.107,0,.213-.018.32-.02.082,0,.164.007.246.006.372-.005-.565-.136-.256-.038.067.021.144.034.214.049.03.006.06.022.091.028.281.054-.281-.114-.309-.137a2.006,2.006,0,0,0,.351.2c-.55-.251-.372-.327-.2-.141a1.556,1.556,0,0,0,.156.168c.109.091-.334-.517-.161-.2.034.065.079.124.114.188s.059.122.092.179c.178.308-.2-.577-.07-.165a8.8,8.8,0,0,1,.267,1.058c.092.5-.04-.4-.017-.148.008.091.02.18.029.271.023.238.037.477.046.716a26.365,26.365,0,0,1-.091,3.044c-.186,2.417-.526,4.819-.764,7.232a30.2,30.2,0,0,0,.024,8.045,2.026,2.026,0,0,0,2.483,1.41A2.075,2.075,0,0,0,70.7,39.91c-.022-.128-.036-.259-.06-.387.143.753.034.251.013.057-.029-.277-.051-.556-.067-.833-.031-.561-.039-1.121-.031-1.683.018-1.245.11-2.49.227-3.731.237-2.514.6-5.018.8-7.537a14.809,14.809,0,0,0-.381-6.129,4.635,4.635,0,0,0-1.944-2.525,4.83,4.83,0,0,0-3.4-.409,12.4,12.4,0,0,0-3.976,1.748,49.3,49.3,0,0,0-5.689,4.225,2.027,2.027,0,0,0,0,2.855,2.073,2.073,0,0,0,2.855,0" transform="translate(-19.727 -4.114)" fill="#fff"/>
  <path id="Path_744" data-name="Path 744" d="M62.051,27.259a44.059,44.059,0,0,0-4.456,3.461,10.564,10.564,0,0,0-3.5,6.691,5.91,5.91,0,0,0,2.716,5.909,5.675,5.675,0,0,0,4.776.289,29.3,29.3,0,0,0,7.248-4.265,2.064,2.064,0,0,0,.724-2.761,2.04,2.04,0,0,0-2.761-.724,36.034,36.034,0,0,1-5.839,3.681,1.792,1.792,0,0,0-.215.1c.433-.282.247-.1.068-.031-.148.054-.293.11-.443.158-.305.1-.64.129-.94.231.581-.2.318-.034.052-.025-.127,0-.253-.008-.38-.008-.279,0,.613.142.143.015-.122-.033-.248-.08-.371-.106-.3-.064.485.263.224.1-.039-.025-.085-.039-.126-.064-.1-.062-.2-.126-.305-.186-.377-.223.387.354.057.042-.112-.106-.223-.21-.331-.319-.287-.291-.005.044.02.039a1.731,1.731,0,0,1-.14-.228c-.23-.409-.054-.006-.019,0a2.157,2.157,0,0,1-.084-.257,2.421,2.421,0,0,1-.093-.4c.012-.006.039.533.018.122a7.036,7.036,0,0,1-.007-.862,1.2,1.2,0,0,1,.026-.293c-.174.345-.033.23.006.021.046-.248.1-.493.173-.735q.094-.328.212-.648c.035-.095.249-.55.024-.075.064-.134.124-.269.191-.4.108-.215.225-.425.351-.629.065-.106.278-.548.383-.567,0,0-.327.381-.074.1.07-.075.136-.154.206-.229.183-.2.378-.38.573-.562.448-.418.915-.815,1.39-1.2.225-.183.453-.361.681-.541-.4.314,0,0,.067-.05q.168-.128.338-.254c.478-.357.96-.709,1.452-1.047a2.019,2.019,0,1,0-2.038-3.486" transform="translate(-19.475 -5.792)" fill="#fff"/>
  <path id="Path_745" data-name="Path 745" d="M83.22,3.723l-.3,11.649L82.434,33.8l-.111,4.236a2.036,2.036,0,0,0,2.018,2.018,2.058,2.058,0,0,0,2.018-2.018l.3-11.649.482-18.426.111-4.236A2.036,2.036,0,0,0,85.238,1.7,2.058,2.058,0,0,0,83.22,3.723" transform="translate(-24.052 -1.703)" fill="#fff"/>
  <path id="Path_746" data-name="Path 746" d="M86.711,25.115c.085-.073.173-.144.26-.215s.2-.165.307-.247l.173-.136c.383-.3-.3.226-.125.095.807-.607,1.624-1.2,2.477-1.738,1.008-.643,2.075-1.121,3.12-1.688-.616.334-.161.068.017,0,.137-.053.275-.1.414-.152.269-.092.541-.175.818-.245.132-.034.267-.064.4-.091.2-.04.686-.038-.065,0,.254-.012.5-.048.758-.043a2.658,2.658,0,0,0,.362.023c.008,0-.575-.114-.325-.044.054.016.116.021.172.034.1.022.2.054.3.08.064.017.13.06.194.07-.09-.014-.517-.27-.234-.091.085.054.177.108.265.156.315.173-.4-.379-.1-.081.084.085.168.173.254.257.055.054.229.278-.016-.029s-.029-.024.018.053c.065.106.117.22.18.325.207.349-.171-.5-.012-.032a7.115,7.115,0,0,1,.274,1.028c.017.091.023.189.046.278-.131-.479-.04-.343-.026-.184.018.21.039.421.05.632.028.548.01,1.093-.013,1.641-.168,3.995-.307,7.994-.3,11.993,0,1.193-.017,2.4.092,3.594a2.018,2.018,0,1,0,4.037,0c-.093-1.02-.083-2.056-.09-3.079-.026-3.955.108-7.913.27-11.865a12.027,12.027,0,0,0-.845-6.043,4.933,4.933,0,0,0-3.3-2.6c-2.763-.576-5.581.737-7.908,2.109a33.81,33.81,0,0,0-4.748,3.388,2.029,2.029,0,0,0,0,2.855,2.07,2.07,0,0,0,2.855,0" transform="translate(-24.205 -4.118)" fill="#fff"/>
  <path id="Path_747" data-name="Path 747" d="M130.36,34.474a2.484,2.484,0,0,0-.227.312c-.033-.068.287-.358,0-.008-.147.177-.3.351-.455.52a11.922,11.922,0,0,1-1.116,1.061c-.062.052-.126.1-.188.154-.337.279.381-.272.025-.021-.2.138-.391.278-.592.408a11.677,11.677,0,0,1-1.234.7c-.174.085-.359.154-.531.243.587-.306-.1.032-.272.091a11.638,11.638,0,0,1-1.318.375c-.184.04-.369.077-.554.108-.111.019-.224.031-.334.052.629-.119.244-.03.092-.019a13.237,13.237,0,0,1-1.327.05q-.274-.006-.547-.028c-.108-.008-.217-.023-.325-.029-.412-.025.51.092.106.016-.425-.081-.844-.157-1.26-.278-.205-.06-.408-.127-.608-.2-.066-.024-.132-.053-.2-.076-.38-.131.447.221.091.037-.38-.2-.758-.376-1.118-.609-.121-.078-.463-.236-.522-.367.086.192.344.284.116.081-.067-.06-.137-.116-.2-.175a10.528,10.528,0,0,1-.9-.945c-.268-.308.267.4.045.056-.06-.095-.131-.184-.193-.277-.1-.158-.205-.32-.3-.484q-.175-.3-.324-.62c-.078-.165-.109-.46.01.045a3.24,3.24,0,0,0-.132-.34,10.224,10.224,0,0,1-.4-1.4c-.019-.091-.189-.672-.131-.727l.035.264c-.011-.093-.022-.185-.031-.278-.017-.167-.028-.334-.044-.5a10.838,10.838,0,0,1-.03-1.73c.007-.1.018-.2.024-.293.033-.5-.088.45,0-.042.062-.331.123-.66.211-.985.061-.23.131-.456.209-.681.046-.133.1-.265.148-.4.169-.456-.2.4.019-.036a12.6,12.6,0,0,1,.827-1.461c.078-.116.161-.228.242-.342.106-.151.047-.208-.061.078a2.623,2.623,0,0,1,.548-.631q.238-.254.492-.491c.1-.1.205-.189.31-.279.09-.078.538-.517.131-.123a6.262,6.262,0,0,1,1.277-.836q.333-.186.679-.349a2.277,2.277,0,0,1,.317-.142c-.555.155.045-.008.164-.049a10.308,10.308,0,0,1,1.474-.4c.07-.013.35-.1.412-.071-.087.011-.174.023-.26.034l.278-.03c.279-.027.56-.041.841-.044s.567.007.848.029c.1.008.189.018.284.027.493.041-.455-.093.032.008a11.755,11.755,0,0,1,1.7.45c.1.037.531.254.078.02.117.061.233.115.348.182q.26.151.514.313.3.195.6.4c.1.07.2.141.293.213.169.126.256.318-.024-.021a11.007,11.007,0,0,0,1.069.911q.549.5,1.064,1.039c.689.715,1.339,1.468,1.965,2.237.135.167.27.334.4.5.113.142.448.435.479.61-.045-.253-.213-.277-.039-.049l.2.258q.277.363.55.728c.6.8,1.2,1.606,1.8,2.4,2.45,3.232,5.108,6.56,8.78,8.463,3.938,2.04,9.073,2.494,12.887-.082a12.344,12.344,0,0,0-2.138-21.56c-4.291-1.848-9.44-1.6-13.075,1.535a10.009,10.009,0,0,0-2.151,2.685A2.019,2.019,0,0,0,143.7,25.7c.135-.241.277-.477.433-.706a1.5,1.5,0,0,1,.236-.329c-.329.243-.15.183-.023.045.163-.177.319-.359.491-.527q.14-.136.284-.266c.065-.057.13-.113.2-.168q.251-.2-.107.075c.05.021.462-.325.523-.365q.321-.206.66-.382a2.6,2.6,0,0,0,.572-.273l-.247.106c.079-.032.158-.062.237-.091.159-.059.32-.112.483-.163a11.622,11.622,0,0,1,1.37-.313c.455-.08-.486.04-.025.005.085-.007.171-.017.257-.023q.453-.038.907-.036.326,0,.651.021c.131.008.261.018.391.03.233.022.4.166-.016-.011a3.61,3.61,0,0,0,.647.11q.453.089.9.214c.211.06.422.125.629.2q.187.064.371.135c.43.163.06-.045.007,0,.121-.094,1.256.639,1.4.728.224.137.443.283.656.437a1.2,1.2,0,0,1,.211.156l-.2-.154c.068.054.136.111.2.167a9.885,9.885,0,0,1,1.12,1.1c.078.091.52.505.507.61.014-.117-.242-.341-.036-.042.061.089.126.176.187.267a11.245,11.245,0,0,1,.749,1.338c.2.4-.161-.44-.006-.018.044.117.09.234.131.353q.1.294.187.6c.066.24.124.482.172.726.024.122.043.244.065.366.076.419-.04-.44-.007-.046a12.52,12.52,0,0,1,.056,1.418q-.01.338-.041.676c-.011.121-.038.246-.04.367.011-.6.018-.158-.012.011a11.031,11.031,0,0,1-.339,1.371c-.062.194-.129.388-.2.579s-.26.371.018-.028a3.455,3.455,0,0,0-.2.444,10.583,10.583,0,0,1-.665,1.164,3,3,0,0,0-.35.5c.127-.366.179-.225.015-.027q-.155.187-.318.365a11.5,11.5,0,0,1-.967.918c-.329.287.384-.268.025-.017-.066.046-.131.1-.2.142q-.351.244-.724.453c-.179.1-.361.194-.547.282l-.112.052q-.3.131.14-.056a1.427,1.427,0,0,0-.351.132,10.4,10.4,0,0,1-1.485.381c-.458.09.484-.038.014,0-.134.011-.267.025-.4.034-.228.014-.457.019-.686.018q-.414,0-.826-.032c-.09-.006-.179-.013-.269-.021l-.267-.027c-.223-.027-.176-.019.143.023a3.81,3.81,0,0,0-.767-.132c-.207-.043-.414-.091-.619-.143a12.532,12.532,0,0,1-1.417-.46c-.206-.081-.33-.26.03.016a1.964,1.964,0,0,0-.333-.152q-.274-.129-.542-.272a14.306,14.306,0,0,1-1.246-.745c-.2-.135-.4-.275-.6-.418-.127-.095-.354-.362.021.021a2.642,2.642,0,0,0-.239-.19c-.382-.309-.752-.634-1.111-.971a28.171,28.171,0,0,1-2.033-2.14q-.461-.533-.9-1.082c-.135-.168-.27-.335-.4-.5l-.24-.305c-.35-.448.133.176-.081-.1-.607-.8-1.205-1.6-1.8-2.4-2.452-3.281-4.977-6.657-8.5-8.869-4.36-2.741-10.177-1.549-13.9,1.681a12.734,12.734,0,0,0-3.6,13.274,10.651,10.651,0,0,0,8.4,7.548,13.68,13.68,0,0,0,11.311-3.358,14.629,14.629,0,0,0,2.152-2.464,2.028,2.028,0,0,0-.724-2.762,2.073,2.073,0,0,0-2.762.724" transform="translate(-28.76 -4.386)" fill="#f4ee31"/>
  <path id="Path_748" data-name="Path 748" d="M13.545,18.607q-.26,6.418-.521,12.835-.111,2.717-.22,5.435a6.087,6.087,0,0,0,1.488,4.081,3.791,3.791,0,0,0,2.995,1.385c1.489-.062,2.507-1.045,3.5-2.033,1.452-1.44,2.825-2.952,4.191-4.472.441-.49.881-.981,1.346-1.449.193-.194.39-.384.6-.562.079-.068.41-.331.075-.07s.022-.008.117-.067.173-.1.259-.147c.326-.191-.52.149-.2.086a1.435,1.435,0,0,0,.226-.061c.142-.053-.673.039-.209.041.4,0-.153.023-.256-.047a1.02,1.02,0,0,0,.262.066c.373.072-.5-.272-.158-.07.093.054.191.1.283.158s.194.138.3.2c.231.141-.229-.18-.223-.174.056.057.131.1.192.157.24.2.468.417.691.638.572.566,1.109,1.166,1.639,1.77.723.823,1.433,1.66,2.144,2.494a11.022,11.022,0,0,0,2.983,2.875,4,4,0,0,0,3.847.071,4.815,4.815,0,0,0,2.131-2.856,9.524,9.524,0,0,0,.3-2.663l.043-2.784q.113-7.25.225-14.5l.005-.313a2.018,2.018,0,1,0-4.037,0l-.194,12.5q-.044,2.791-.086,5.581c0,.243-.022.484-.034.727.026-.5-.046.155-.09.307-.023.08-.052.293-.115.344,0,0,.236-.432.034-.106-.044.07-.093.152-.132.226-.182.347.236-.175.051-.063a.994.994,0,0,0-.213.205q.37-.272.177-.149a1.253,1.253,0,0,1-.147.081c.1-.133.415-.159.169-.086-.385.113.419-.039.143-.018-.375.028.048-.111.118.034,0-.009-.264-.07-.25-.066-.381-.1.1.037.1.039-.063.021-.349-.209-.4-.243.074.049.282.256,0-.013-.144-.136-.286-.269-.42-.416-.831-.91-1.6-1.88-2.4-2.816a34.114,34.114,0,0,0-3.281-3.545,5.322,5.322,0,0,0-3.408-1.587,4.937,4.937,0,0,0-3.268,1.554c-1.031.94-1.924,2.036-2.859,3.068-.676.746-1.36,1.484-2.06,2.207q-.617.637-1.25,1.261c-.19.187-.4.362-.576.56-.3.338.181-.036-.02.03-.129.043-.371.33-.172.114l.126-.056q-.324.08.2,0a1.223,1.223,0,0,1-.215,0c.6.073.333.054.179.005-.254-.082.5.216.148.055a1.148,1.148,0,0,1-.179-.117c.016-.111.361.341.157.1a1.966,1.966,0,0,0-.193-.208c-.117-.1.244.407.039.033-.085-.157-.175-.31-.26-.468-.191-.358.1.358.044.1-.019-.091-.065-.184-.091-.273-.042-.141-.063-.287-.1-.427-.106-.361.008.427.027.186.008-.1,0-.213,0-.317.034-1.383.112-2.766.168-4.149q.283-6.959.565-13.918l.013-.309a2.033,2.033,0,0,0-2.018-2.018,2.061,2.061,0,0,0-2.018,2.018" transform="translate(-12.799 -4.112)" fill="#fff"/>
</svg>
